<svg xmlns="http://www.w3.org/2000/svg" viewBox="0 0 2352.96 1049.41"><defs><style>.cls-1{fill-rule:evenodd;}</style></defs><g id="Warstwa_2" data-name="Warstwa 2"><g id="Warstwa_1-2" data-name="Warstwa 1"><path class="cls-1" d="M0,328V492.11H479.92C535.7,492.11,607,440.53,607,355.2c0-34.32,13.13-56.7-27.21-102.1l-61.38-72.73c-35.18-32.81,4.2-32.81,33.74-32.81H754.75V492.11H915.44V147.56H1132V0H430.7c-85.33,0-127,81.93-124.7,124.59s10.2,96.32,81.11,160.8c64.68,58.79-32,42.65-41.74,42.65ZM1487.36,0H1228.12L1082.79,492.12h161.74l26.23-68.9h170.63l25.33,68.9h158.43L1487.36,0ZM1306.87,305.07l55.79-180.48,52.51,180.48Zm830.21,23c-62.35,0-62.35-23-62.35-23,53.43,0,100.79-77.83,100.79-157.51S2097.7,0,2035.33,0H1686.56V492.12h177.22V328.06s75.46,88.59,114.84,124.69,42.65,39.37,96.1,39.37h278.19V328.06s-153.48,0-215.83,0ZM1976.28,213.2H1863.81V124.59h112.47C2027.85,124.59,2036.77,213.2,1976.28,213.2ZM0,554.46H181.3l45.94,164.09L269.9,554.46H460.23l49.22,164.09,49.24-164.09h157.5L571.8,1046.7H427.42l-63.27-233-71.28,233H145.21Zm1088.28,2.84H829L683.73,1049.41H845.45l26.25-68.9h170.64l25.33,68.9h158.44ZM907.81,862.36l55.78-180.49,52.5,180.49ZM2140.35,702.14c-29.51,0-61.69,3.45-26.5,36.25l61.4,72.75c40.32,45.4,39.67,64.32,39.67,98.66,0,85.32-84.4,136.9-140.19,136.9L1687,1049.31c-53.42,0-56.69-3.27-96.08-39.37s-114.85-124.7-114.85-124.7v164.07H1298.87V557.19h348.77c62.35,0,140.19,67.89,140.19,147.56S1740.46,862.27,1687,862.27c0,0,23.5,23.63,62.87,23.63s191,.16,191,.16c9.7,0,106.39,16.13,41.72-42.66-70.9-64.47-78.75-118.12-81.11-160.78S1936,554.47,2021.33,554.47H2353V702.16H2140.35v0Zm-551.8,68.24h-112.5V681.77h112.5C1640.13,681.77,1649,770.38,1588.55,770.38Z"/></g></g></svg>