<svg xmlns="http://www.w3.org/2000/svg" viewBox="0 0 363 364.2"><defs><style>.cls-1{fill-rule:evenodd;}</style></defs><g id="Warstwa_2" data-name="Warstwa 2"><g id="Warstwa_1-2" data-name="Warstwa 1"><path class="cls-1" d="M181.5,0C81.26,0,0,81.53,0,182.1S81.26,364.2,181.5,364.2,363,282.67,363,182.1,281.74,0,181.5,0Zm0,342c-88,0-159.37-71.59-159.37-159.9S93.48,22.2,181.5,22.2,340.87,93.79,340.87,182.1,269.52,342,181.5,342Z"/><path class="cls-1" d="M310.08,235.18c-4.88,8.08-10.27,15.95-18.56,22.65a164.61,164.61,0,0,0,21.88-38.59,120.2,120.2,0,0,0,7.14-57c-1.94-20.66-9.08-37.62-18.27-52.82,5,9.47,7.18,19.52,8.15,29.8.88,15.62-3.43,30.6-10.56,45.22-6.3,12.81-14.49,23.64-23.51,33.57,10.86-17.77,18.32-37,21-56.85,2.68-24.67-1.43-50.12-17.65-74.36a145.32,145.32,0,0,0-41.24-41.63c13.88,10.91,21.74,23.6,24.48,37.68,2.74,14.62-.4,29.37-5.58,42.21-6.45,15-14.43,29.09-25.22,41.55a136,136,0,0,1,15.12,43.34c3.27,23.59-1.35,45.53-14.49,64.93-10.87,15.92-25.68,28.43-43.62,38.23q-.68-27.29-1.37-54.57l21.6,23.09-15.17-30.2,39.19-5.78-39.19-5.79,12.64-35.34-19.69,29.22q-2.48-98.46-4.93-196.93-2.48,98.48-5,196.93L157.54,204.5l12.64,35.34L131,245.63l39.19,5.78q-7.59,15.11-15.17,30.2l21.6-23.09q-.69,27.28-1.37,54.57c-17.47-8.63-30.91-21.31-42-35.95-12.51-17.9-19.38-38.26-16.65-62.8a124.09,124.09,0,0,1,15.69-47.75c-8.23-9.45-14.4-20-20.31-30.62-6.77-13.29-11.76-28.37-11.37-45.26.81-16.94,8.15-32.38,25.36-45.56C100.56,62.86,88.87,79,80.31,94.08A106.45,106.45,0,0,0,66.63,157.4C69.26,180.25,77,200.09,88,218c-6.37-6.94-12.54-14.28-17.84-23.33-6.18-10.3-11.88-21.8-14.7-36-3.17-17.68-1.7-34.28,6.62-49.25a123.07,123.07,0,0,0-17,44.07c-2.88,17.72-2.9,36.37,2.33,55a141.66,141.66,0,0,0,25.38,49.39c-6.49-4.72-11.58-11.52-16.16-18.72a172.86,172.86,0,0,1-14.81-30.75,141.34,141.34,0,0,0,22.63,60.49c12.28,17.73,27.75,33.54,50.55,43.88,21.37,9.6,43.68,13.78,67.14,13.94,28.31-.25,52.05-6.11,72.58-16.65,19.29-10.33,33.78-23.78,44.36-40,11.38-19.47,21.1-39.43,23.39-61.63A158,158,0,0,1,310.08,235.18Z"/></g></g></svg>